<?xml version="1.0" encoding="UTF-8" standalone="no"?>
<!-- Created with Inkscape (http://www.inkscape.org/) -->

<svg
   version="1.1"
   id="svg10555"
   width="800"
   height="800"
   viewBox="0 0 800 800"
   sodipodi:docname="mother-with-kid-pdv.svg"
   inkscape:version="1.2 (dc2aedaf03, 2022-05-15)"
   xmlns:inkscape="http://www.inkscape.org/namespaces/inkscape"
   xmlns:sodipodi="http://sodipodi.sourceforge.net/DTD/sodipodi-0.dtd"
   xmlns="http://www.w3.org/2000/svg"
   xmlns:svg="http://www.w3.org/2000/svg">
  <defs
     id="defs10559">
    <clipPath
       clipPathUnits="userSpaceOnUse"
       id="clipPath10571">
      <path
         d="M 0,600 H 600 V 0 H 0 Z"
         id="path10569" />
    </clipPath>
  </defs>
  <sodipodi:namedview
     id="namedview10557"
     pagecolor="#ffffff"
     bordercolor="#000000"
     borderopacity="0.25"
     inkscape:showpageshadow="2"
     inkscape:pageopacity="0.0"
     inkscape:pagecheckerboard="0"
     inkscape:deskcolor="#d1d1d1"
     showgrid="false"
     inkscape:zoom="1.04625"
     inkscape:cx="400"
     inkscape:cy="400.4779"
     inkscape:window-width="1920"
     inkscape:window-height="1017"
     inkscape:window-x="-8"
     inkscape:window-y="-8"
     inkscape:window-maximized="1"
     inkscape:current-layer="g10563">
    <inkscape:page
       x="0"
       y="0"
       id="page10561"
       width="800"
       height="800" />
  </sodipodi:namedview>
  <g
     id="g10563"
     inkscape:groupmode="layer"
     inkscape:label="Page 1"
     transform="matrix(1.3333333,0,0,-1.3333333,0,800)">
    <g
       id="g10565">
      <g
         id="g10567"
         clip-path="url(#clipPath10571)">
        <g
           id="g10573"
           transform="translate(292.2065,561.71)">
          <path
             d="m 0,0 c -2.98,4.962 -6.882,9.361 -11.904,12.307 -2.546,1.52 -5.407,2.163 -8.32,2.295 l 15.992,-28.75 z"
             style="fill:#ff7611;fill-opacity:1;fill-rule:nonzero;stroke:none"
             id="path10575" />
        </g>
        <g
           id="g10577"
           transform="translate(296.9287,546.5166)">
          <path
             d="m 0,0 c -0.231,0.521 -0.398,1.061 -0.383,1.654 -0.052,2.098 0.136,4.279 -0.726,6.253 -1.013,2.491 -2.212,4.95 -3.613,7.286 L -8.955,1.045 Z"
             style="fill:#d57f2e;fill-opacity:1;fill-rule:nonzero;stroke:none"
             id="path10579" />
        </g>
        <g
           id="g10581"
           transform="translate(271.9829,576.312)">
          <path
             d="m 0,0 c -2.085,0.094 -4.196,-0.073 -6.237,-0.369 -2.584,-0.433 -5.149,-1.076 -7.555,-2.135 -1.613,-0.658 -2.654,-2.109 -3.829,-3.325 -0.696,-0.872 -1.973,-0.433 -2.901,-0.85 -0.961,-0.768 -1.658,-1.796 -2.428,-2.746 -3.076,-3.967 -6.205,-8.095 -7.508,-13.028 -1.187,-4.421 -1.827,-9.154 -0.832,-13.674 0.322,-1.648 1.228,-2.972 2.278,-4.204 l 45.003,11.581 z"
             style="fill:#ff7500;fill-opacity:1;fill-rule:nonzero;stroke:none"
             id="path10583" />
        </g>
        <g
           id="g10585"
           transform="translate(481.6943,448.8555)">
          <path
             d="M 0,0 C -0.037,0.517 -0.162,1.263 -0.841,1.221 -0.957,1.191 -1.072,1.159 -1.187,1.124 L 0.054,-2.43 C 0.051,-1.618 0.037,-0.808 0,0"
             style="fill:#7d4d33;fill-opacity:1;fill-rule:nonzero;stroke:none"
             id="path10587" />
        </g>
        <g
           id="g10589"
           transform="translate(309.4492,504.4155)">
          <path
             d="m 0,0 30.982,20.539 c -0.192,0.236 -0.396,0.463 -0.617,0.678 -1.763,1.613 -4.249,1.822 -6.412,2.573 -1.936,0.601 -2.085,3.554 -4.332,3.623 -4.635,0.34 -9.306,-0.287 -13.923,0.34 -3.294,0.239 -6.772,0.75 -9.424,2.88 -1.975,1.409 -3.286,3.559 -5.331,4.87 -1.187,-0.005 -2.247,-0.668 -3.361,-0.997 -0.217,0.814 -0.431,1.629 -0.629,2.442 0.337,-0.114 1.01,-0.343 1.344,-0.459 -0.084,1.389 -0.775,2.621 -1.415,3.821 0.582,-0.564 1.188,-1.106 1.828,-1.619 0.058,1.267 -0.735,2.296 -1.231,3.41 l -8.954,1.045 z"
             style="fill:#eab037;fill-opacity:1;fill-rule:nonzero;stroke:none"
             id="path10591" />
        </g>
        <g
           id="g10593"
           transform="translate(287.9741,547.5615)">
          <path
             d="m 0,0 -45.003,-11.581 c 0.833,-0.976 1.756,-1.896 2.555,-2.873 1.036,-1.027 0.03,-2.135 -0.348,-3.286 l 64.271,-25.406 z"
             style="fill:#ffaa00;fill-opacity:1;fill-rule:nonzero;stroke:none"
             id="path10595" />
        </g>
        <g
           id="g10597"
           transform="translate(245.1777,529.8218)">
          <path
             d="M 0,0 C -0.109,-0.33 -0.166,-0.664 -0.108,-0.999 0.555,-2.55 2.53,-2.764 3.49,-4.021 c 1.159,-3.278 -0.117,-7.214 2.111,-10.158 2.253,-2.661 5.335,-4.41 7.996,-6.617 1.3,-1.076 2.091,-2.673 3.498,-3.64 1.041,-0.678 2.542,-0.484 3.442,-1.33 0.496,-1.743 0.031,-3.883 -1.184,-5.251 -1.916,-1.378 -4.435,-1.221 -6.679,-1.451 -1.89,-0.209 -3.409,-1.607 -5.256,-1.899 -1.548,0.178 -3.152,-0.063 -4.661,0.281 -1.918,2.014 -2.761,5.12 -5.374,6.477 -0.947,-0.015 -1.221,-1.069 -1.31,-1.831 -0.384,-2.005 1.036,-3.638 1.77,-5.366 -2.169,0.349 -4.351,0.981 -5.851,2.693 -1.571,-1.081 -0.648,-3.21 -0.086,-4.63 0.796,-2.009 3.126,-2.359 4.838,-3.241 2.028,-0.825 3.349,-3.272 2.855,-5.407 -1.407,-1.629 -3.995,-1.108 -5.676,-2.301 -0.652,-0.821 -1.003,-2.209 -0.222,-3.059 2.56,-0.83 5.274,0.141 7.73,0.934 0.816,-0.865 1.561,-1.795 2.185,-2.806 l 60.655,27.217 z"
             style="fill:#ffab00;fill-opacity:1;fill-rule:nonzero;stroke:none"
             id="path10599" />
        </g>
        <g
           id="g10601"
           transform="translate(387.3984,487.668)">
          <path
             d="M 0,0 C -4.591,3.634 -9.509,6.827 -14.438,9.988 L -22.504,1.52 Z"
             style="fill:#7d7e48;fill-opacity:1;fill-rule:nonzero;stroke:none"
             id="path10603" />
        </g>
        <g
           id="g10605"
           transform="translate(372.96,497.6562)">
          <path
             d="m 0,0 c -1.736,1.113 -3.476,2.222 -5.2,3.347 -1.268,0.811 -2.539,1.616 -3.815,2.418 l 0.95,-14.233 z"
             style="fill:#7d7448;fill-opacity:1;fill-rule:nonzero;stroke:none"
             id="path10607" />
        </g>
        <g
           id="g10609"
           transform="translate(364.8945,489.188)">
          <path
             d="m 0,0 -0.949,14.233 c -6.085,3.831 -12.223,7.579 -18.223,11.533 -1.675,0.929 -1.815,2.986 -2.478,4.571 -0.809,1.858 -1.523,3.85 -2.813,5.43 L -55.445,15.228 Z"
             style="fill:#93854c;fill-opacity:1;fill-rule:nonzero;stroke:none"
             id="path10611" />
        </g>
        <g
           id="g10613"
           transform="translate(302.2588,443.3096)">
          <path
             d="m 0,0 c -0.446,-1.314 -1.218,-2.551 -1.459,-3.933 -0.408,-2.37 1.708,-4.3 1.355,-6.671 -0.19,-1.596 -0.479,-3.281 -1.364,-4.645 l 20.957,7.635 z"
             style="fill:#ffc900;fill-opacity:1;fill-rule:nonzero;stroke:none"
             id="path10615" />
        </g>
        <g
           id="g10617"
           transform="translate(442.5234,454.0347)">
          <path
             d="m 0,0 c -1.129,0.197 -2.264,0.286 -3.404,0.081 -2.203,-0.751 -3.194,-3.1 -4.317,-4.937 -0.37,0.966 -0.617,2.291 -1.852,2.474 -1.657,0.431 -3.357,0.769 -5.07,0.979 l 3.785,-7.566 z"
             style="fill:#7d7143;fill-opacity:1;fill-rule:nonzero;stroke:none"
             id="path10619" />
        </g>
        <g
           id="g10621"
           transform="translate(309.4492,504.4155)">
          <path
             d="m 0,0 12.299,-68.72 43.146,53.492 z"
             style="fill:#f1c74a;fill-opacity:1;fill-rule:nonzero;stroke:none"
             id="path10623" />
        </g>
        <g
           id="g10625"
           transform="translate(309.4492,504.4155)">
          <path
             d="m 0,0 -60.656,-27.217 c 0.186,-0.301 0.362,-0.609 0.525,-0.926 -1.79,-1.07 -4.147,-2.019 -4.594,-4.316 0.228,-0.825 0.995,-1.279 1.623,-1.78 2.587,1.237 5.071,2.704 7.305,4.505 0.721,0.625 1.691,0.751 2.594,0.918 7.13,1.169 14.286,2.14 21.444,3.131 2.524,0.303 5.048,0.783 7.597,0.679 1.842,-0.053 3.489,-0.971 5.107,-1.759 3.296,-1.717 6.606,-3.821 8.578,-7.056 1.6,-2.657 2.769,-5.581 3.479,-8.597 0.535,-1.513 -1.816,-2.171 -1.4,-3.717 0.312,-4.3 1.253,-8.528 1.52,-12.839 0.064,-0.752 -0.081,-1.451 -0.312,-2.132 l 19.489,-7.614 z"
             style="fill:#ffc600;fill-opacity:1;fill-rule:nonzero;stroke:none"
             id="path10627" />
        </g>
        <g
           id="g10629"
           transform="translate(427.8799,452.6318)">
          <path
             d="M 0,0 C -2.52,0.308 -5.072,0.332 -7.571,-0.062 L 3.785,-7.566 Z"
             style="fill:#7d824c;fill-opacity:1;fill-rule:nonzero;stroke:none"
             id="path10631" />
        </g>
        <g
           id="g10633"
           transform="translate(398.8027,466.7822)">
          <path
             d="m 0,0 c -0.785,1.268 -1.554,2.546 -2.3,3.838 -3.044,5.407 -3.481,12.375 -8.508,16.577 -0.197,0.158 -0.396,0.314 -0.596,0.471 l -22.504,1.52 z"
             style="fill:#7d824c;fill-opacity:1;fill-rule:nonzero;stroke:none"
             id="path10635" />
        </g>
        <g
           id="g10637"
           transform="translate(351.9463,425.6074)">
          <path
             d="m 0,0 c 0.682,-5.879 1.404,-11.753 2.451,-17.579 0.031,-0.246 0.082,-0.485 0.141,-0.72 L 25.64,-7.016 c 1.337,4.894 1.169,10.09 2.836,14.924 0.6,1.696 1.273,3.711 3.016,4.545 2.047,0.596 3.883,-0.938 5.439,-2.056 3.181,-2.482 6.351,-5.482 10.165,-6.91 l 32.623,15.971 -11.357,7.504 c -0.574,-0.09 -1.145,-0.201 -1.713,-0.337 -2.787,-0.632 -5.73,-1.425 -8.574,-0.784 -1.853,1.122 -2.891,3.164 -4.212,4.819 -2.436,3.433 -4.793,6.931 -7.007,10.515 L 12.948,63.581 Z"
             style="fill:#919b56;fill-opacity:1;fill-rule:nonzero;stroke:none"
             id="path10639" />
        </g>
        <g
           id="g10641"
           transform="translate(321.748,435.6953)">
          <path
             d="m 0,0 18.724,-23.121 c -0.016,0.108 -0.031,0.217 -0.047,0.324 -1.409,8.534 -3.262,16.984 -4.682,25.518 -0.334,2.056 -0.668,4.133 -0.532,6.216 2.233,-0.777 4.056,-2.416 6.331,-3.064 0.966,-0.312 1.885,0.486 2.004,1.42 0.527,2.788 -0.119,5.637 0.137,8.445 1.998,-0.391 3.199,-2.244 4.358,-3.759 1.654,-2.119 1.706,-4.91 2.129,-7.446 0.672,-4.863 1.21,-9.744 1.776,-14.621 l 12.949,63.581 z"
             style="fill:#e4be59;fill-opacity:1;fill-rule:nonzero;stroke:none"
             id="path10643" />
        </g>
        <g
           id="g10645"
           transform="translate(481.7412,440.7515)">
          <path
             d="M 0,0 C -0.042,1.889 0.011,3.784 0.007,5.674 L -1.234,9.228 C -2.239,8.93 -3.227,8.517 -4.291,8.563 c -2.693,-0.261 -4.911,1.92 -7.599,1.597 -2.807,-0.345 -5.366,-1.69 -8.132,-2.213 -1.038,0.48 -1.827,1.399 -2.922,1.764 -2.015,0.668 -4.124,1.091 -5.992,2.124 -1.745,0.867 -3.247,2.287 -5.21,2.631 -0.303,-0.683 -0.605,-1.378 -0.898,-2.073 -1.383,0.232 -2.774,0.645 -4.174,0.89 L -50.076,4.314 Z"
             style="fill:#7d5b3e;fill-opacity:1;fill-rule:nonzero;stroke:none"
             id="path10647" />
        </g>
        <g
           id="g10649"
           transform="translate(215.3418,408.2891)">
          <path
             d="M 0,0 C -0.218,-0.097 -0.435,-0.198 -0.651,-0.3 L 2.426,0.064 C 1.658,0.407 0.801,0.456 0,0"
             style="fill:#ff6900;fill-opacity:1;fill-rule:nonzero;stroke:none"
             id="path10651" />
        </g>
        <g
           id="g10653"
           transform="translate(321.748,435.6953)">
          <path
             d="m 0,0 -20.957,-7.634 c -0.128,-0.197 -0.268,-0.388 -0.422,-0.57 -1.537,-1.852 -1.634,-4.4 -2.031,-6.665 -0.459,-1.811 1.25,-3.434 0.734,-5.187 -1.25,-1.494 -3.513,-2.193 -3.956,-4.291 -1.203,-4.494 -1.316,-9.208 -2.443,-13.717 -0.929,-0.188 -1.902,-0.344 -2.513,-1.138 0.384,-0.59 0.77,-1.169 1.164,-1.763 -0.325,-0.298 -0.672,-0.573 -1.012,-0.856 l 15.038,-9.916 z"
             style="fill:#ffd700;fill-opacity:1;fill-rule:nonzero;stroke:none"
             id="path10655" />
        </g>
        <g
           id="g10657"
           transform="translate(359.0742,401.8906)">
          <path
             d="m 0,0 c 3.79,-2.223 6.921,-5.354 10.376,-8.037 1.612,-1.233 3.121,-2.84 5.214,-3.179 0.919,-0.251 2.178,-0.251 2.627,-1.274 0.98,-2.354 0.823,-5.308 2.875,-7.119 3.164,-2.811 6.967,-5.125 9.281,-8.763 L 56.712,-47.44 c 0.525,0.81 1.045,1.625 1.56,2.442 l 4.986,30.71 c -1.987,1.552 -4.413,2.462 -6.836,3.087 -1.565,0.408 -2.892,1.493 -3.65,2.913 -1.414,2.609 -2.656,5.464 -4.961,7.432 -3.436,2.609 -7.747,3.497 -11.808,4.635 -2.703,2.84 -5.648,5.543 -9.024,7.599 -2.313,1.378 -4.964,1.963 -7.412,3.017 -0.683,0.261 -1.507,0.888 -1.22,1.722 0.057,0.194 0.112,0.389 0.165,0.584 L -4.536,5.418 C -3.946,3.051 -2.032,1.244 0,0"
             style="fill:#aea457;fill-opacity:1;fill-rule:nonzero;stroke:none"
             id="path10659" />
        </g>
        <g
           id="g10661"
           transform="translate(399.042,429.0947)">
          <path
             d="m 0,0 c 1.142,-0.427 2.339,-0.715 3.614,-0.804 8.849,-0.642 17.661,0.595 26.476,1.18 l 2.533,15.595 z"
             style="fill:#aea457;fill-opacity:1;fill-rule:nonzero;stroke:none"
             id="path10663" />
        </g>
        <g
           id="g10665"
           transform="translate(449.543,424.0259)">
          <path
             d="m 0,0 c 0.406,0.225 0.842,0.37 1.336,0.361 1.685,-1.514 1.675,-4.144 3.397,-5.617 1.41,-0.47 2.647,0.783 3.858,1.315 2.138,-2.651 3.173,-5.98 4.744,-8.972 1.609,-3.653 3.779,-7.016 6.256,-10.144 l 2.491,-2.93 c 1.296,-1.229 2.949,-2.075 4.818,-1.702 1.597,0.146 2.082,1.869 2.564,3.122 2.149,6.273 3.892,12.704 4.931,19.259 0.851,5.538 -0.485,11.055 -1.624,16.441 -0.393,1.847 -0.531,3.717 -0.573,5.593 l -50.076,4.313 z"
             style="fill:#7d503f;fill-opacity:1;fill-rule:nonzero;stroke:none"
             id="path10667" />
        </g>
        <g
           id="g10669"
           transform="translate(470.5098,399.2915)">
          <path
             d="M 0,0 C 0.332,-0.438 0.706,-0.864 1.115,-1.253 L -1.376,1.678 C -0.926,1.112 -0.468,0.551 0,0"
             style="fill:#7e6847;fill-opacity:1;fill-rule:nonzero;stroke:none"
             id="path10671" />
        </g>
        <g
           id="g10673"
           transform="translate(421.3154,363.3403)">
          <path
             d="m 0,0 c 3.033,5.109 6.069,10.22 8.774,15.512 0.647,0.918 0.277,2.087 -0.553,2.724 -1.624,1.682 -4.144,1.357 -6.149,2.244 -0.098,1.181 0.25,2.652 -0.752,3.54 -0.099,0.083 -0.201,0.163 -0.303,0.242 L -3.97,-6.448 C -2.625,-4.311 -1.313,-2.153 0,0"
             style="fill:#7e6847;fill-opacity:1;fill-rule:nonzero;stroke:none"
             id="path10675" />
        </g>
        <g
           id="g10677"
           transform="translate(429.1318,429.4707)">
          <path
             d="m 0,0 c 0.653,0.043 1.307,0.084 1.96,0.119 -0.256,-2.27 1.059,-4.592 3.31,-5.224 2.171,-0.314 4.373,0.469 6.544,-0.011 1.723,-0.553 2.803,-2.432 4.698,-2.536 1.619,-0.032 2.611,1.492 3.899,2.207 L 2.533,15.595 Z"
             style="fill:#7e6847;fill-opacity:1;fill-rule:nonzero;stroke:none"
             id="path10679" />
        </g>
        <g
           id="g10681"
           transform="translate(389.7686,372.9961)">
          <path
             d="m 0,0 c 1.186,-1.973 0.982,-4.374 0.518,-6.535 -1.297,-5.752 -3.841,-11.089 -5.992,-16.54 l 1.686,-2.471 29.078,5.889 c 0.244,0.37 0.485,0.74 0.728,1.111 L -0.321,0.522 C -0.212,0.351 -0.102,0.179 0,0"
             style="fill:#ffd245;fill-opacity:1;fill-rule:nonzero;stroke:none"
             id="path10683" />
        </g>
        <g
           id="g10685"
           transform="translate(244.1558,393.0649)">
          <path
             d="m 0,0 c -0.316,1.278 -1.07,2.745 -2.513,2.959 -2.059,0.198 -4.119,-0.36 -6.177,-0.051 -1.914,0.233 -3.701,1.105 -5.632,1.22 -1.01,-0.151 -1.876,-0.762 -2.879,-0.924 -1.417,0.141 -2.954,0.883 -3.343,2.365 -0.459,1.503 -2.372,1.273 -3.418,2.15 -0.561,1.738 0.266,3.643 -0.28,5.392 -0.406,0.907 -1.209,1.76 -2.146,2.178 l -3.077,-0.365 c -3.114,-1.48 -6.039,-3.43 -9.417,-4.251 -0.155,-0.036 -0.31,-0.068 -0.465,-0.094 L -0.354,-9.148 C -0.156,-6.09 0.76,-3.036 0,0"
             style="fill:#ff7000;fill-opacity:1;fill-rule:nonzero;stroke:none"
             id="path10687" />
        </g>
        <g
           id="g10689"
           transform="translate(305.3496,383.958)">
          <path
             d="m 0,0 36.081,17.039 c -0.183,3.871 -0.4,7.744 -0.959,11.577 L 16.398,51.737 Z"
             style="fill:#ffda25;fill-opacity:1;fill-rule:nonzero;stroke:none"
             id="path10691" />
        </g>
        <g
           id="g10693"
           transform="translate(158.1084,390.4448)">
          <path
             d="m 0,0 c -2.137,-5.292 -3.911,-10.735 -5.601,-16.186 -0.672,-2.191 -1.329,-4.388 -1.971,-6.59 l 58.369,7.114 z"
             style="fill:#ff1c00;fill-opacity:1;fill-rule:nonzero;stroke:none"
             id="path10695" />
        </g>
        <g
           id="g10697"
           transform="translate(200.3779,403.9951)">
          <path
             d="m 0,0 c -2.322,0.559 -4.627,1.366 -7.015,0.771 -3.246,-0.797 -6.626,-1.81 -9.168,-4.081 -0.365,1.216 -0.383,3.304 -2.145,3.188 -4.596,-0.579 -9.108,1.671 -13.704,0.596 -3.635,-0.7 -5.618,-4.197 -7.21,-7.192 -1.094,-2.241 -2.095,-4.523 -3.028,-6.832 L 8.527,-29.212 Z"
             style="fill:#ff1f00;fill-opacity:1;fill-rule:nonzero;stroke:none"
             id="path10699" />
        </g>
        <g
           id="g10701"
           transform="translate(243.8315,380.377)">
          <path
             d="M 0,0 C -0.022,0.71 -0.04,1.42 -0.062,2.129 -0.074,2.599 -0.06,3.07 -0.03,3.54 l -38.992,19.727 c -1.5,-0.254 -2.97,-0.002 -4.432,0.351 l 8.528,-29.212 z"
             style="fill:#ff5e00;fill-opacity:1;fill-rule:nonzero;stroke:none"
             id="path10703" />
        </g>
        <g
           id="g10705"
           transform="translate(290.312,393.874)">
          <path
             d="m 0,0 c -0.495,-0.413 -0.973,-0.841 -1.332,-1.383 -0.222,-0.684 -0.11,-1.425 -0.151,-2.146 -1.535,-0.271 -3.816,0.846 -4.829,-0.657 0.286,-1.013 0.873,-1.905 1.381,-2.825 -1.2,0.309 -2.427,0.56 -3.672,0.539 0.042,-0.893 0.134,-1.785 0.261,-2.678 -0.71,-0.131 -1.672,0.151 -2.145,-0.527 -0.179,-0.487 -0.289,-0.992 -0.388,-1.498 l 25.913,1.259 z"
             style="fill:#ffc100;fill-opacity:1;fill-rule:nonzero;stroke:none"
             id="path10707" />
        </g>
        <g
           id="g10709"
           transform="translate(208.9053,374.7827)">
          <path
             d="m 0,0 -58.369,-7.114 c -2.314,-7.935 -4.415,-15.933 -6.205,-24.011 -0.381,-1.793 -0.757,-3.592 -1.113,-5.396 l 44.017,-30.248 z"
             style="fill:#ff4800;fill-opacity:1;fill-rule:nonzero;stroke:none"
             id="path10711" />
        </g>
        <g
           id="g10713"
           transform="translate(315.8457,351.9521)">
          <path
             d="m 0,0 c 4.118,4.378 8.138,8.851 12.113,13.35 5.172,5.753 9.079,12.517 12.211,19.563 1.806,3.998 1.503,8.497 1.419,12.777 -0.055,1.118 -0.104,2.236 -0.158,3.355 L -10.496,32.006 Z"
             style="fill:#ffdf00;fill-opacity:1;fill-rule:nonzero;stroke:none"
             id="path10715" />
        </g>
        <g
           id="g10717"
           transform="translate(384.2949,349.9209)">
          <path
             d="m 0,0 c -0.108,-0.277 -0.217,-0.553 -0.324,-0.83 -0.346,-0.819 -0.244,-1.625 0.009,-2.417 l 2.001,0.776 z"
             style="fill:#ffdc2b;fill-opacity:1;fill-rule:nonzero;stroke:none"
             id="path10719" />
        </g>
        <g
           id="g10721"
           transform="translate(143.2178,338.2622)">
          <path
             d="m 0,0 c -1.684,-8.501 -2.948,-17.13 -2.328,-25.801 0.129,-2.436 0.354,-4.861 0.662,-7.275 l 45.683,2.828 z"
             style="fill:#ff4100;fill-opacity:1;fill-rule:nonzero;stroke:none"
             id="path10723" />
        </g>
        <g
           id="g10725"
           transform="translate(307.3779,319.7212)">
          <path
             d="m 0,0 c -4.472,3.821 -9.124,7.437 -13.844,10.946 3.547,2.947 6.976,6.024 10.318,9.194 L -44.84,51.364 c -0.374,-0.422 -0.775,-0.811 -1.249,-1.106 -1.24,-0.334 -2.548,-0.136 -3.811,-0.177 0.026,-0.376 0.078,-1.118 0.107,-1.494 -1.996,-0.834 -4.055,-2.014 -6.294,-1.659 0.18,1.806 0.814,3.575 0.72,5.403 0,0.713 -0.72,1.185 -1.378,1.132 -1.119,-0.105 -2.116,-0.693 -3.151,-1.104 l -12.416,-69.143 z"
             style="fill:#ffb800;fill-opacity:1;fill-rule:nonzero;stroke:none"
             id="path10727" />
        </g>
        <g
           id="g10729"
           transform="translate(315.8457,351.9521)">
          <path
             d="m 0,0 -10.496,32.006 -25.912,-1.259 c -0.076,-0.395 -0.144,-0.792 -0.228,-1.185 -0.88,0.204 -2.088,1.379 -2.821,0.412 -0.233,-0.829 0.018,-1.706 0.047,-2.562 -2.036,-0.961 -4.816,-0.262 -6.382,-2.099 -0.459,-1.43 0.017,-2.965 -0.221,-4.436 -1.326,0.433 -2.61,1.315 -4.048,1.201 -1.455,-0.485 -2.257,-1.83 -3.247,-2.945 l 41.314,-31.224 C -7.876,-8.185 -3.893,-4.138 0,0"
             style="fill:#ffd400;fill-opacity:1;fill-rule:nonzero;stroke:none"
             id="path10731" />
        </g>
        <g
           id="g10733"
           transform="translate(235.0664,302.937)">
          <path
             d="m 0,0 12.415,69.143 c -0.634,-0.251 -1.282,-0.435 -1.982,-0.4 -0.785,0.382 -0.885,1.347 -1.096,2.089 -0.391,2.18 -0.502,4.396 -0.572,6.608 l -34.926,-5.594 z"
             style="fill:#ff8400;fill-opacity:1;fill-rule:nonzero;stroke:none"
             id="path10735" />
        </g>
        <g
           id="g10737"
           transform="translate(187.2349,308.0142)">
          <path
             d="M 0,0 47.831,-5.077 21.67,66.769 Z"
             style="fill:#ff7a00;fill-opacity:1;fill-rule:nonzero;stroke:none"
             id="path10739" />
        </g>
        <g
           id="g10741"
           transform="translate(383.9795,346.6743)">
          <path
             d="m 0,0 c 0.265,-0.834 0.697,-1.653 0.958,-2.453 -0.2,-0.267 -0.601,-0.794 -0.8,-1.06 0.278,-0.55 0.621,-1.032 1.011,-1.455 l 0.832,5.744 z"
             style="fill:#ffda00;fill-opacity:1;fill-rule:nonzero;stroke:none"
             id="path10743" />
        </g>
        <g
           id="g10745"
           transform="translate(385.1484,341.7061)">
          <path
             d="m 0,0 c 2.384,-2.581 6.632,-2.897 9.95,-2.198 3.965,0.745 8.271,1.72 11.708,3.947 l 4.792,4.898 c 1.198,1.632 2.346,3.297 3.46,4.986 L 0.832,5.744 Z"
             style="fill:#ffd10c;fill-opacity:1;fill-rule:nonzero;stroke:none"
             id="path10747" />
        </g>
        <g
           id="g10749"
           transform="translate(410.5996,347.0137)">
          <path
             d="M 0,0 C 0.337,0.443 0.67,0.89 0.999,1.339 L -3.793,-3.559 C -2.345,-2.62 -1.05,-1.462 0,0"
             style="fill:#ffc900;fill-opacity:1;fill-rule:nonzero;stroke:none"
             id="path10751" />
        </g>
        <g
           id="g10753"
           transform="translate(306.5215,257.8389)">
          <path
             d="M 0,0 10.438,37.139 C 9.789,40.001 9.174,42.871 8.613,45.755 7.514,51.35 6.032,57.446 1.512,61.324 1.295,61.511 1.074,61.695 0.856,61.882 L -71.455,45.098 Z"
             style="fill:#ffb500;fill-opacity:1;fill-rule:nonzero;stroke:none"
             id="path10755" />
        </g>
        <g
           id="g10757"
           transform="translate(332.5078,251.1143)">
          <path
             d="m 0,0 c -1.635,2.854 -3.274,5.705 -4.74,8.651 -1.829,3.643 -3.39,7.415 -4.69,11.277 L -25.986,6.725 Z"
             style="fill:#ffb700;fill-opacity:1;fill-rule:nonzero;stroke:none"
             id="path10759" />
        </g>
        <g
           id="g10761"
           transform="translate(323.0781,271.042)">
          <path
             d="m 0,0 c -0.745,2.214 -1.406,4.457 -1.98,6.721 -1.4,5.733 -2.836,11.459 -4.139,17.215 l -10.438,-37.139 z"
             style="fill:#ffcd00;fill-opacity:1;fill-rule:nonzero;stroke:none"
             id="path10763" />
        </g>
        <g
           id="g10765"
           transform="translate(187.2349,308.0142)">
          <path
             d="m 0,0 -45.683,-2.828 c 0.656,-5.128 1.687,-10.203 2.983,-15.212 L 7.224,-59.546 Z"
             style="fill:#ff4f00;fill-opacity:1;fill-rule:nonzero;stroke:none"
             id="path10767" />
        </g>
        <g
           id="g10769"
           transform="translate(235.0664,302.937)">
          <path
             d="m 0,0 20.695,-81.412 50.76,36.314 z"
             style="fill:#ff9900;fill-opacity:1;fill-rule:nonzero;stroke:none"
             id="path10771" />
        </g>
        <g
           id="g10773"
           transform="translate(144.5347,289.9746)">
          <path
             d="m 0,0 c 0.857,-3.315 1.829,-6.602 2.884,-9.854 2.704,-8.231 5.429,-16.482 9.192,-24.311 1.757,-3.715 3.596,-7.397 5.569,-11.006 l 32.279,3.664 z"
             style="fill:#ff4300;fill-opacity:1;fill-rule:nonzero;stroke:none"
             id="path10775" />
        </g>
        <g
           id="g10777"
           transform="translate(194.4585,248.4678)">
          <path
             d="M 0,0 40.608,54.469 -7.224,59.546 Z"
             style="fill:#ff6c00;fill-opacity:1;fill-rule:nonzero;stroke:none"
             id="path10779" />
        </g>
        <g
           id="g10781"
           transform="translate(235.0664,302.937)">
          <path
             d="m 0,0 -40.608,-54.469 28.97,-12.732 c -1.439,12.248 -3.031,24.481 -3.968,36.775 1.505,-2.411 2.627,-5.047 4.105,-7.484 4.199,-7.036 8.327,-14.103 12.346,-21.254 1.386,-2.354 2.56,-4.822 3.539,-7.379 0.65,-1.87 2.255,-3.101 3.38,-4.646 0.882,-1.352 -0.629,-3.163 0.384,-4.406 1.957,0.559 2.836,2.94 4.621,3.947 0.521,-2.197 0.77,-4.433 0.912,-6.682 l 7.014,-3.082 z"
             style="fill:#ff7b00;fill-opacity:1;fill-rule:nonzero;stroke:none"
             id="path10783" />
        </g>
        <g
           id="g10785"
           transform="translate(162.1802,244.8037)">
          <path
             d="m 0,0 c 0.999,-1.827 2.03,-3.638 3.107,-5.42 1.373,-2.333 3.31,-4.379 5.682,-5.705 0.85,-0.511 2.275,-0.729 2.704,0.413 0.856,2.583 0.566,5.36 0.733,8.043 1.362,-5.142 2.054,-10.438 3.461,-15.569 0.019,-0.076 0.041,-0.15 0.062,-0.225 L 32.278,3.664 Z"
             style="fill:#ff3600;fill-opacity:1;fill-rule:nonzero;stroke:none"
             id="path10787" />
        </g>
        <g
           id="g10789"
           transform="translate(177.9287,226.3408)">
          <path
             d="m 0,0 c 0.803,-2.941 2.417,-5.571 4.09,-8.091 0.974,-1.299 2.048,-2.912 3.824,-3.09 0.61,0.215 1.064,0.7 1.33,1.274 1.083,2.265 1.054,4.937 2.334,7.12 0.952,0.73 2.291,0.574 3.397,0.345 0.504,-0.123 1.125,-0.363 1.494,-0.761 l 0.061,25.33 z"
             style="fill:#ff3500;fill-opacity:1;fill-rule:nonzero;stroke:none"
             id="path10791" />
        </g>
        <g
           id="g10793"
           transform="translate(191.9116,203.1035)">
          <path
             d="M 0,0 C 0.241,-2.433 0.269,-4.963 1.094,-7.297 1.292,-7.37 1.689,-7.525 1.893,-7.599 1.99,-6.342 2.135,-4.994 2.43,-3.693 L 2.479,16.878 C 1.548,11.256 -0.57,5.769 0,0"
             style="fill:#ff3500;fill-opacity:1;fill-rule:nonzero;stroke:none"
             id="path10795" />
        </g>
        <g
           id="g10797"
           transform="translate(306.1299,186.5791)">
          <path
             d="m 0,0 38.991,28.12 c -0.053,1.375 -0.11,2.75 -0.171,4.125 -0.459,5.205 -0.234,10.669 -2.484,15.523 -1.77,4.013 -4.771,7.307 -6.821,11.17 -1.011,1.883 -2.074,3.742 -3.137,5.597 L 0.392,71.26 Z"
             style="fill:#ff8200;fill-opacity:1;fill-rule:nonzero;stroke:none"
             id="path10799" />
        </g>
        <g
           id="g10801"
           transform="translate(306.5215,257.8389)">
          <path
             d="M 0,0 -50.76,-36.313 -0.392,-71.26 Z"
             style="fill:#ff8a00;fill-opacity:1;fill-rule:nonzero;stroke:none"
             id="path10803" />
        </g>
        <g
           id="g10805"
           transform="translate(194.3975,223.1377)">
          <path
             d="M 0,0 C 0.264,-0.283 0.401,-0.647 0.273,-1.108 0.202,-1.794 0.105,-2.476 -0.007,-3.156 l -0.049,-20.571 c 0.58,2.566 1.744,4.952 4.283,6.115 4.52,-4.103 7.155,-9.828 11.626,-13.988 0.482,-0.449 1.253,-0.882 1.806,-0.261 0.214,1.66 -0.066,3.329 -0.032,4.99 0.559,-2.067 1.037,-4.218 2.224,-6.044 0.191,0.063 0.569,0.177 0.762,0.234 0.626,3.983 -0.34,8.064 0.488,12.031 1.79,-1.785 2.839,-4.139 4.559,-5.971 0.616,-0.428 1.002,-0.272 1.17,0.449 -0.035,1.869 -0.575,3.696 -0.507,5.565 2.655,-1.296 4.583,-3.707 7.294,-4.886 0.181,0.167 0.541,0.479 0.72,0.637 -1.14,4.113 -3.715,7.625 -5.339,11.545 1.508,-1.159 2.735,-2.955 4.752,-3.215 -0.388,2.578 -2.257,4.571 -2.978,7.041 -1.213,3.157 -0.117,6.529 -0.378,9.776 -0.416,4.107 -0.881,8.207 -1.363,12.308 L 0.061,25.33 Z"
             style="fill:#ff5e00;fill-opacity:1;fill-rule:nonzero;stroke:none"
             id="path10807" />
        </g>
        <g
           id="g10809"
           transform="translate(248.7471,224.6074)">
          <path
             d="m 0,0 c 0.142,-2.271 0.176,-4.557 0.27,-6.827 0.042,-0.745 0.055,-1.488 0.044,-2.232 l 6.7,5.977 z"
             style="fill:#ff5e00;fill-opacity:1;fill-rule:nonzero;stroke:none"
             id="path10811" />
        </g>
        <g
           id="g10813"
           transform="translate(344.1211,171.3613)">
          <path
             d="M 0,0 C 0.771,3.115 1.336,6.266 1.31,9.528 1.621,20.794 1.439,32.069 1,43.338 l -38.991,-28.12 z"
             style="fill:#ff4c00;fill-opacity:1;fill-rule:nonzero;stroke:none"
             id="path10815" />
        </g>
        <g
           id="g10817"
           transform="translate(255.7612,221.5254)">
          <path
             d="m 0,0 5.857,-56.422 44.512,21.476 z"
             style="fill:#ff6f00;fill-opacity:1;fill-rule:nonzero;stroke:none"
             id="path10819" />
        </g>
        <g
           id="g10821"
           transform="translate(255.7612,221.5254)">
          <path
             d="m 0,0 -6.7,-5.977 c -0.07,-4.996 -1.207,-9.932 -1.907,-14.872 -1.798,-11.597 -3.18,-23.542 -1.398,-35.205 l 15.862,-0.368 z"
             style="fill:#ff5b00;fill-opacity:1;fill-rule:nonzero;stroke:none"
             id="path10823" />
        </g>
        <g
           id="g10825"
           transform="translate(245.7563,165.4717)">
          <path
             d="m 0,0 c 0.233,-1.522 0.517,-3.04 0.863,-4.551 2.16,-10.003 6.237,-19.422 9.509,-29.086 l 5.49,33.269 z"
             style="fill:#ff4900;fill-opacity:1;fill-rule:nonzero;stroke:none"
             id="path10827" />
        </g>
        <g
           id="g10829"
           transform="translate(261.6182,165.1035)">
          <path
             d="m 0,0 35.922,-45.294 8.59,66.77 z"
             style="fill:#ff5900;fill-opacity:1;fill-rule:nonzero;stroke:none"
             id="path10831" />
        </g>
        <g
           id="g10833"
           transform="translate(297.5405,119.8096)">
          <path
             d="m 0,0 40.913,20.768 c 0.544,4.836 1.131,9.666 1.79,14.487 0.572,5.58 2.538,10.883 3.878,16.297 L 8.589,66.77 Z"
             style="fill:#ff4a00;fill-opacity:1;fill-rule:nonzero;stroke:none"
             id="path10835" />
        </g>
        <g
           id="g10837"
           transform="translate(336.292,119.7236)">
          <path
             d="M 0,0 C 0.689,6.952 1.38,13.908 2.161,20.854 L -38.751,0.086 Z"
             style="fill:#ff1e00;fill-opacity:1;fill-rule:nonzero;stroke:none"
             id="path10839" />
        </g>
        <g
           id="g10841"
           transform="translate(261.6182,165.1035)">
          <path
             d="m 0,0 -5.49,-33.268 c 0.199,-0.588 0.396,-1.178 0.588,-1.767 0.498,-1.472 0.957,-2.953 1.388,-4.444 l 39.436,-5.815 z"
             style="fill:#ff4f00;fill-opacity:1;fill-rule:nonzero;stroke:none"
             id="path10843" />
        </g>
        <g
           id="g10845"
           transform="translate(333.4678,69.6113)">
          <path
             d="m 0,0 c 2.74,3.455 3.455,8.018 3.408,12.308 -0.022,1.33 -0.09,2.657 -0.182,3.982 L -20.495,0 Z"
             style="fill:#ff0300;fill-opacity:1;fill-rule:nonzero;stroke:none"
             id="path10847" />
        </g>
        <g
           id="g10849"
           transform="translate(335.9209,115.9814)">
          <path
             d="m 0,0 c 0.124,1.248 0.247,2.496 0.371,3.742 l -38.751,0.086 6.494,-50.198 h 8.938 l 23.72,16.29 c -0.437,6.247 -1.477,12.453 -1.503,18.722 C -0.825,-7.558 -0.345,-3.779 0,0"
             style="fill:#ff2d00;fill-opacity:1;fill-rule:nonzero;stroke:none"
             id="path10851" />
        </g>
        <g
           id="g10853"
           transform="translate(267.8887,75.9512)">
          <path
             d="m 0,0 c 0.052,-0.362 0.108,-0.726 0.159,-1.089 0.097,-0.441 0.109,-0.874 0.068,-1.3 l 0.335,0.173 z"
             style="fill:#ff3300;fill-opacity:1;fill-rule:nonzero;stroke:none"
             id="path10855" />
        </g>
        <g
           id="g10857"
           transform="translate(297.5405,119.8096)">
          <path
             d="m 0,0 -39.436,5.815 c 1.959,-6.77 3.311,-13.71 4.731,-20.615 1.867,-9.651 3.655,-19.321 5.053,-29.058 l 0.562,-2.216 z"
             style="fill:#ff4500;fill-opacity:1;fill-rule:nonzero;stroke:none"
             id="path10859" />
        </g>
        <g
           id="g10861"
           transform="translate(268.4507,73.7354)">
          <path
             d="M 0,0 15.341,-4.124 H 35.585 L 29.09,46.074 Z"
             style="fill:#ff3e00;fill-opacity:1;fill-rule:nonzero;stroke:none"
             id="path10863" />
        </g>
        <g
           id="g10865"
           transform="translate(268.1152,73.5625)">
          <path
             d="m 0,0 c -0.134,-1.355 -0.834,-2.644 -1.224,-3.951 h 16.9 L 0.335,0.173 Z"
             style="fill:#ff3200;fill-opacity:1;fill-rule:nonzero;stroke:none"
             id="path10867" />
        </g>
      </g>
    </g>
  </g>
</svg>
